<svg width="600" height="400" xmlns="http://www.w3.org/2000/svg">
  <!-- Blue theme template -->
  <rect width="100%" height="100%" fill="#eff6ff"/>
  <rect width="100%" height="60" fill="#1e40af"/>
  
  <!-- Header navbar -->
  <rect x="20" y="15" width="120" height="30" rx="4" fill="#3b82f6" opacity="0.9"/>
  <rect x="400" y="20" width="70" height="20" rx="10" fill="#white" opacity="0.8"/>
  <rect x="490" y="20" width="70" height="20" rx="10" fill="#white" opacity="0.8"/>
  
  <!-- Hero section - with image -->
  <rect x="30" y="100" width="250" height="180" rx="4" fill="#1e40af" opacity="0.1"/>
  <rect x="50" y="120" width="200" height="30" rx="4" fill="#1e3a8a" opacity="0.8"/>
  <rect x="50" y="160" width="180" height="20" rx="4" fill="#3b82f6" opacity="0.6"/>
  <rect x="50" y="190" width="150" height="20" rx="4" fill="#3b82f6" opacity="0.6"/>
  <rect x="50" y="230" width="120" height="40" rx="20" fill="#2563eb" opacity="0.9"/>
  
  <!-- Image/illustration -->
  <rect x="320" y="100" width="250" height="180" rx="8" fill="#bfdbfe" opacity="0.6"/>
  <circle cx="430" cy="180" r="60" fill="#60a5fa" opacity="0.8"/>
  <circle cx="460" cy="150" r="30" fill="#3b82f6" opacity="0.9"/>
  
  <!-- Feature sections -->
  <rect x="30" y="310" width="160" height="70" rx="6" fill="#bfdbfe" opacity="0.3"/>
  <rect x="40" y="320" width="100" height="15" rx="3" fill="#1e40af" opacity="0.7"/>
  <rect x="40" y="345" width="140" height="10" rx="3" fill="#3b82f6" opacity="0.5"/>
  <rect x="40" y="360" width="120" height="10" rx="3" fill="#3b82f6" opacity="0.5"/>
  
  <rect x="220" y="310" width="160" height="70" rx="6" fill="#bfdbfe" opacity="0.3"/>
  <rect x="230" y="320" width="100" height="15" rx="3" fill="#1e40af" opacity="0.7"/>
  <rect x="230" y="345" width="140" height="10" rx="3" fill="#3b82f6" opacity="0.5"/>
  <rect x="230" y="360" width="120" height="10" rx="3" fill="#3b82f6" opacity="0.5"/>
  
  <rect x="410" y="310" width="160" height="70" rx="6" fill="#bfdbfe" opacity="0.3"/>
  <rect x="420" y="320" width="100" height="15" rx="3" fill="#1e40af" opacity="0.7"/>
  <rect x="420" y="345" width="140" height="10" rx="3" fill="#3b82f6" opacity="0.5"/>
  <rect x="420" y="360" width="120" height="10" rx="3" fill="#3b82f6" opacity="0.5"/>
</svg> 