<svg width="600" height="400" xmlns="http://www.w3.org/2000/svg">
  <!-- Dark theme template -->
  <rect width="100%" height="100%" fill="#0f172a"/>
  <rect width="100%" height="60" fill="#1e293b"/>
  
  <!-- Header navbar -->
  <rect x="20" y="15" width="120" height="30" rx="4" fill="#7c3aed" opacity="0.9"/>
  <rect x="400" y="20" width="70" height="20" rx="10" fill="#3b82f6" opacity="0.9"/>
  <rect x="490" y="20" width="70" height="20" rx="10" fill="#06b6d4" opacity="0.9"/>
  
  <!-- Hero section - centered -->
  <rect x="200" y="100" width="200" height="30" rx="4" fill="#e2e8f0" opacity="0.2"/>
  <rect x="150" y="140" width="300" height="20" rx="4" fill="#e2e8f0" opacity="0.15"/>
  <rect x="180" y="170" width="240" height="20" rx="4" fill="#e2e8f0" opacity="0.15"/>
  <rect x="240" y="220" width="120" height="40" rx="20" fill="#7c3aed" opacity="0.9"/>
  
  <!-- Dashboard UI elements -->
  <rect x="50" y="280" width="150" height="90" rx="6" fill="#1e293b"/>
  <rect x="60" y="290" width="130" height="15" rx="3" fill="#475569" opacity="0.8"/>
  <rect x="60" y="315" width="80" height="40" rx="3" fill="#475569" opacity="0.5"/>
  
  <rect x="225" y="280" width="150" height="90" rx="6" fill="#1e293b"/>
  <rect x="235" y="290" width="130" height="15" rx="3" fill="#475569" opacity="0.8"/>
  <rect x="235" y="315" width="80" height="40" rx="3" fill="#475569" opacity="0.5"/>
  
  <rect x="400" y="280" width="150" height="90" rx="6" fill="#1e293b"/>
  <rect x="410" y="290" width="130" height="15" rx="3" fill="#475569" opacity="0.8"/>
  <rect x="410" y="315" width="80" height="40" rx="3" fill="#475569" opacity="0.5"/>
</svg> 