<svg width="600" height="400" xmlns="http://www.w3.org/2000/svg">
  <!-- Purple theme template -->
  <rect width="100%" height="100%" fill="#f5f3ff"/>
  <rect width="100%" height="70" fill="#4c1d95"/>
  
  <!-- Header navbar -->
  <rect x="20" y="20" width="120" height="30" rx="4" fill="#8b5cf6" opacity="0.9"/>
  <rect x="400" y="25" width="70" height="20" rx="10" fill="#ffffff" opacity="0.8"/>
  <rect x="490" y="25" width="70" height="20" rx="10" fill="#ffffff" opacity="0.8"/>
  
  <!-- App showcase style -->
  <rect x="50" y="100" width="500" height="60" rx="8" fill="#4c1d95" opacity="0.1"/>
  <rect x="70" y="120" width="300" height="25" rx="4" fill="#7c3aed" opacity="0.7"/>
  <rect x="380" y="120" width="150" height="25" rx="12" fill="#8b5cf6" opacity="0.9"/>
  
  <!-- Feature blocks with icons -->
  <rect x="50" y="190" width="150" height="150" rx="12" fill="#ddd6fe" opacity="0.7"/>
  <circle cx="125" cy="230" r="25" fill="#8b5cf6" opacity="0.9"/>
  <rect x="80" y="270" width="90" height="15" rx="3" fill="#4c1d95" opacity="0.7"/>
  <rect x="80" y="290" width="90" height="10" rx="3" fill="#4c1d95" opacity="0.5"/>
  <rect x="80" y="310" width="90" height="10" rx="3" fill="#4c1d95" opacity="0.5"/>
  
  <rect x="225" y="190" width="150" height="150" rx="12" fill="#ddd6fe" opacity="0.7"/>
  <circle cx="300" cy="230" r="25" fill="#8b5cf6" opacity="0.9"/>
  <rect x="255" y="270" width="90" height="15" rx="3" fill="#4c1d95" opacity="0.7"/>
  <rect x="255" y="290" width="90" height="10" rx="3" fill="#4c1d95" opacity="0.5"/>
  <rect x="255" y="310" width="90" height="10" rx="3" fill="#4c1d95" opacity="0.5"/>
  
  <rect x="400" y="190" width="150" height="150" rx="12" fill="#ddd6fe" opacity="0.7"/>
  <circle cx="475" cy="230" r="25" fill="#8b5cf6" opacity="0.9"/>
  <rect x="430" y="270" width="90" height="15" rx="3" fill="#4c1d95" opacity="0.7"/>
  <rect x="430" y="290" width="90" height="10" rx="3" fill="#4c1d95" opacity="0.5"/>
  <rect x="430" y="310" width="90" height="10" rx="3" fill="#4c1d95" opacity="0.5"/>
</svg> 