<svg width="600" height="400" xmlns="http://www.w3.org/2000/svg">
  <!-- Background and main content area -->
  <rect width="100%" height="100%" fill="#f8fafc"/>
  <rect width="100%" height="60" fill="#1e293b"/>
  
  <!-- Header navbar -->
  <rect x="20" y="15" width="120" height="30" rx="4" fill="#4c1d95" opacity="0.8"/>
  <rect x="420" y="20" width="60" height="20" rx="10" fill="#3b82f6" opacity="0.9"/>
  <rect x="500" y="20" width="60" height="20" rx="10" fill="#06b6d4" opacity="0.9"/>
  
  <!-- Hero section -->
  <rect x="30" y="100" width="200" height="30" rx="4" fill="#6b7280" opacity="0.2"/>
  <rect x="30" y="140" width="300" height="20" rx="4" fill="#6b7280" opacity="0.15"/>
  <rect x="30" y="170" width="270" height="20" rx="4" fill="#6b7280" opacity="0.15"/>
  <rect x="30" y="220" width="120" height="40" rx="20" fill="#7c3aed" opacity="0.8"/>
  
  <!-- Image/card section -->
  <rect x="400" y="110" width="170" height="120" rx="6" fill="#e2e8f0"/>
  <rect x="30" y="280" width="150" height="90" rx="6" fill="#e2e8f0"/>
  <rect x="200" y="280" width="150" height="90" rx="6" fill="#e2e8f0"/>
  <rect x="370" y="280" width="150" height="90" rx="6" fill="#e2e8f0"/>
</svg>
